<?xml version="1.0" encoding="UTF-8" standalone="no"?>
<svg
   width="800"
   height="190.803"
   version="1.1"
   id="svg1"
   sodipodi:docname="AMD_Logo copy.svg"
   inkscape:version="1.3 (0e150ed, 2023-07-21)"
   xmlns:inkscape="http://www.inkscape.org/namespaces/inkscape"
   xmlns:sodipodi="http://sodipodi.sourceforge.net/DTD/sodipodi-0.dtd"
   xmlns="http://www.w3.org/2000/svg"
   xmlns:svg="http://www.w3.org/2000/svg">
  <defs
     id="defs1" />
  <sodipodi:namedview
     id="namedview1"
     pagecolor="#ffffff"
     bordercolor="#000000"
     borderopacity="0.25"
     inkscape:showpageshadow="2"
     inkscape:pageopacity="0.0"
     inkscape:pagecheckerboard="0"
     inkscape:deskcolor="#d1d1d1"
     inkscape:zoom="0.7725"
     inkscape:cx="400"
     inkscape:cy="95.79288"
     inkscape:window-width="1392"
     inkscape:window-height="1027"
     inkscape:window-x="0"
     inkscape:window-y="25"
     inkscape:window-maximized="0"
     inkscape:current-layer="svg1" />
  <path
     style="display:inline"
     d="M 662.708,62.397 609.2,115.903 v 74.899 h 74.889 l 53.505,-53.506 h -74.886 z"
     id="path5" />
  <path
     style="display:inline"
     d="M 662.769,51.981 610.797,0 H 800 V 189.21 L 748.028,137.235 V 51.981 Z"
     id="path4" />
  <path
     style="display:inline"
     d="m 489.375,12.776 c 60.364,0 91.391,37.573 91.391,82.909 0,47.517 -30.058,82.437 -96,82.437 H 416.397 V 12.776 Z m -31.762,135.041 h 26.906 c 41.457,0 53.823,-28.129 53.823,-52.377 0,-28.368 -15.276,-52.363 -54.308,-52.363 h -26.422 v 104.74 z"
     id="path3" />
  <path
     style="display:inline"
     d="m 349.056,12.776 h 35.88 V 178.122 H 343.717 V 74.842 l -44.608,51.877 h -6.301 L 248.203,74.842 V 178.12 H 206.984 V 12.776 h 35.88 l 53.092,61.336 z"
     id="path2" />
  <path
     style="display:inline"
     d="M 187.888,178.122 H 143.52 L 129.947,145.384 H 56.003 L 43.637,178.122 H 0 L 66.667,12.776 h 47.761 z M 91.155,52.286 66.912,116.53 h 50.913 z"
     id="path1" />
</svg>
